<svg width="18" height="14" viewBox="0 0 18 14" fill="none" xmlns="http://www.w3.org/2000/svg">
<path d="M16.1968 0.285156H1.79965C1.32251 0.28568 0.865067 0.47636 0.52768 0.815361C0.190293 1.15436 0.000520816 1.614 0 2.09342V11.7375C0.000520816 12.2169 0.190293 12.6765 0.52768 13.0155C0.865067 13.3545 1.32251 13.5452 1.79965 13.5457H16.1968C16.674 13.5452 17.1314 13.3545 17.4688 13.0155C17.8062 12.6765 17.996 12.2169 17.9965 11.7375V2.09342C17.996 1.614 17.8062 1.15436 17.4688 0.815361C17.1314 0.47636 16.674 0.28568 16.1968 0.285156ZM8.39836 8.61259C8.04783 8.48977 7.74401 8.26041 7.52902 7.95631C7.31404 7.65221 7.19854 7.28843 7.19854 6.91542C7.19854 6.54241 7.31404 6.17864 7.52902 5.87454C7.74401 5.57044 8.04783 5.34108 8.39836 5.21825V8.61259ZM9.59813 5.21825C9.94865 5.34109 10.2525 5.57046 10.4674 5.87456C10.6824 6.17866 10.7979 6.54243 10.7979 6.91544C10.7979 7.28845 10.6824 7.65222 10.4674 7.95632C10.2525 8.26042 9.94865 8.48979 9.59813 8.61263V5.21825ZM1.19977 4.50443H2.39953C2.55858 4.50459 2.71107 4.56814 2.82354 4.68115C2.936 4.79415 2.99926 4.94737 2.99941 5.10718V8.7237C2.99926 8.88351 2.936 9.03673 2.82354 9.14973C2.71107 9.26274 2.55858 9.32629 2.39953 9.32645H1.19977V4.50443ZM1.79965 12.3402C1.6406 12.3401 1.48811 12.2765 1.37564 12.1635C1.26318 12.0505 1.19992 11.8973 1.19977 11.7375V10.532H2.39953C2.87667 10.5314 3.33411 10.3408 3.6715 10.0018C4.00889 9.66275 4.19866 9.20312 4.19918 8.7237V5.10718C4.19866 4.62776 4.00889 4.16813 3.6715 3.82913C3.33411 3.49013 2.87667 3.29945 2.39953 3.29892H1.19977V2.09342C1.19992 1.9336 1.26318 1.78038 1.37564 1.66738C1.48811 1.55438 1.6406 1.49082 1.79965 1.49066H8.39836V3.9626C7.72098 4.10152 7.11216 4.4713 6.67491 5.00938C6.23766 5.54746 5.99883 6.22078 5.99883 6.91544C5.99883 7.6101 6.23766 8.28343 6.67491 8.8215C7.11216 9.35958 7.72098 9.72936 8.39836 9.86829V12.3402H1.79965ZM16.7967 11.7375C16.7966 11.8973 16.7333 12.0505 16.6208 12.1635C16.5084 12.2765 16.3559 12.3401 16.1968 12.3402H9.59813V9.86829C10.2755 9.72936 10.8843 9.35958 11.3216 8.8215C11.7588 8.28343 11.9977 7.6101 11.9977 6.91544C11.9977 6.22078 11.7588 5.54746 11.3216 5.00938C10.8843 4.4713 10.2755 4.10152 9.59813 3.9626V1.49066H16.1968C16.3559 1.49082 16.5084 1.55438 16.6208 1.66738C16.7333 1.78038 16.7966 1.9336 16.7967 2.09342V3.29892H15.597C15.1198 3.29945 14.6624 3.49013 14.325 3.82913C13.9876 4.16813 13.7978 4.62776 13.7973 5.10718V8.7237C13.7978 9.20312 13.9876 9.66275 14.325 10.0018C14.6624 10.3408 15.1198 10.5314 15.597 10.532H16.7967V11.7375ZM16.7967 9.32645H15.597C15.4379 9.32629 15.2854 9.26274 15.1729 9.14973C15.0605 9.03673 14.9972 8.88351 14.9971 8.7237V5.10718C14.9972 4.94737 15.0605 4.79415 15.1729 4.68115C15.2854 4.56814 15.4379 4.50459 15.597 4.50443H16.7967V9.32645Z" fill="#15171C"/>
</svg>
