<svg width="16" height="16" viewBox="0 0 16 16" fill="none" xmlns="http://www.w3.org/2000/svg">
<path d="M5.50065 1.33301H2.16732C1.70708 1.33301 1.33398 1.7061 1.33398 2.16634V5.49967C1.33398 5.95991 1.70708 6.33301 2.16732 6.33301H5.50065C5.96089 6.33301 6.33398 5.95991 6.33398 5.49967V2.16634C6.33398 1.7061 5.96089 1.33301 5.50065 1.33301Z" stroke="#15171C" stroke-width="1.5" stroke-linecap="round" stroke-linejoin="round"/>
<path d="M13.834 1.33301H10.5007C10.0404 1.33301 9.66732 1.7061 9.66732 2.16634V5.49967C9.66732 5.95991 10.0404 6.33301 10.5007 6.33301H13.834C14.2942 6.33301 14.6673 5.95991 14.6673 5.49967V2.16634C14.6673 1.7061 14.2942 1.33301 13.834 1.33301Z" stroke="#15171C" stroke-width="1.5" stroke-linecap="round" stroke-linejoin="round"/>
<path d="M5.50065 9.66634H2.16732C1.70708 9.66634 1.33398 10.0394 1.33398 10.4997V13.833C1.33398 14.2932 1.70708 14.6663 2.16732 14.6663H5.50065C5.96089 14.6663 6.33398 14.2932 6.33398 13.833V10.4997C6.33398 10.0394 5.96089 9.66634 5.50065 9.66634Z" stroke="#15171C" stroke-width="1.5" stroke-linecap="round" stroke-linejoin="round"/>
<path d="M13.834 9.66634H10.5007C10.0404 9.66634 9.66732 10.0394 9.66732 10.4997V13.833C9.66732 14.2932 10.0404 14.6663 10.5007 14.6663H13.834C14.2942 14.6663 14.6673 14.2932 14.6673 13.833V10.4997C14.6673 10.0394 14.2942 9.66634 13.834 9.66634Z" stroke="#15171C" stroke-width="1.5" stroke-linecap="round" stroke-linejoin="round"/>
</svg>
