<svg width="48" height="16" viewBox="0 0 48 16" fill="none" xmlns="http://www.w3.org/2000/svg">
<path d="M18.5373 4.08398C18.7606 4.08398 18.9479 4.15972 19.0994 4.31121C19.2509 4.45471 19.3266 4.63808 19.3266 4.86132C19.3266 5.08455 19.2509 5.27191 19.0994 5.42339C18.9479 5.5669 18.7606 5.63865 18.5373 5.63865C18.3141 5.63865 18.1267 5.5669 17.9753 5.42339C17.8238 5.27191 17.748 5.08455 17.748 4.86132C17.748 4.63808 17.8238 4.45471 17.9753 4.31121C18.1267 4.15972 18.3141 4.08398 18.5373 4.08398ZM17.8916 6.53558H19.1831V12.6586H17.8916V6.53558Z" fill="white"/>
<path d="M23.6781 6.46383C24.4036 6.46383 24.9936 6.68706 25.4481 7.13353C25.9105 7.58 26.1417 8.29754 26.1417 9.28615V12.6586H24.8381V9.3579C24.8381 8.7759 24.7146 8.33341 24.4674 8.03045C24.2203 7.72749 23.8575 7.57601 23.3791 7.57601C22.8689 7.57601 22.4663 7.7554 22.1713 8.11417C21.8843 8.46496 21.7408 8.9513 21.7408 9.57316V12.6586H20.4492V6.53558H21.5733L21.7168 7.33683C22.1793 6.75483 22.833 6.46383 23.6781 6.46383Z" fill="white"/>
<path d="M27.7109 7.67168H26.6466V6.53558H27.7109V4.82544H29.0145V6.53558H30.4854V7.67168H29.0145V10.8647C29.0145 11.1039 29.0623 11.2753 29.158 11.379C29.2536 11.4746 29.4171 11.5225 29.6483 11.5225H30.6289V12.6586H29.3852C28.8032 12.6586 28.3766 12.5231 28.1056 12.252C27.8425 11.9809 27.7109 11.5623 27.7109 10.9963V7.67168Z" fill="white"/>
<path d="M34.7065 6.53558V7.74344H34.1324C33.5983 7.74344 33.2116 7.91884 32.9724 8.26963C32.7332 8.61246 32.6136 9.05096 32.6136 9.58512V12.6586H31.3221V6.53558H32.4701L32.6136 7.45642C32.789 7.16941 33.0163 6.94617 33.2953 6.78672C33.5744 6.61929 33.9491 6.53558 34.4195 6.53558H34.7065Z" fill="white"/>
<path d="M41.1527 11.5344V12.6586H40.4711C40.0724 12.6586 39.7854 12.5749 39.61 12.4074C39.4346 12.24 39.3469 11.9969 39.3469 11.6779C38.8845 12.3795 38.2108 12.7303 37.3259 12.7303C36.6402 12.7303 36.0901 12.5709 35.6755 12.252C35.2609 11.9331 35.0537 11.4946 35.0537 10.9365C35.0537 10.3066 35.2769 9.8243 35.7234 9.48945C36.1698 9.14663 36.8196 8.97521 37.6727 8.97521H39.2154V8.60449C39.2154 8.26166 39.0958 7.99458 38.8566 7.80323C38.6174 7.60392 38.2866 7.50426 37.864 7.50426C37.4893 7.50426 37.1784 7.58797 36.9312 7.7554C36.692 7.91485 36.5485 8.13011 36.5007 8.40118H35.233C35.2968 7.78729 35.5679 7.31291 36.0463 6.97806C36.5246 6.63524 37.1505 6.46383 37.9238 6.46383C38.745 6.46383 39.3788 6.65517 39.8253 7.03786C40.2718 7.42054 40.495 7.97066 40.495 8.6882V11.1039C40.495 11.3909 40.6305 11.5344 40.9016 11.5344H41.1527ZM39.2154 9.93193H37.6129C37.2142 9.93193 36.9073 10.0117 36.692 10.1711C36.4768 10.3226 36.3691 10.5498 36.3691 10.8528C36.3691 11.1159 36.4688 11.3272 36.6681 11.4866C36.8754 11.6461 37.1545 11.7258 37.5052 11.7258C38.0394 11.7258 38.454 11.5823 38.749 11.2953C39.0519 11.0082 39.2074 10.6256 39.2154 10.1472V9.93193Z" fill="white"/>
<path d="M47.5009 10.4581C47.3813 11.1677 47.0744 11.7258 46.5801 12.1324C46.0858 12.531 45.4519 12.7303 44.6786 12.7303C44.0727 12.7303 43.5385 12.6028 43.0761 12.3477C42.6137 12.0846 42.2549 11.7138 41.9998 11.2355C41.7526 10.7571 41.629 10.207 41.629 9.58512C41.629 8.96326 41.7566 8.41713 42.0117 7.94674C42.2669 7.47635 42.6256 7.1136 43.088 6.85847C43.5584 6.59537 44.1006 6.46383 44.7145 6.46383C45.4798 6.46383 46.1057 6.66713 46.592 7.07373C47.0784 7.47237 47.3813 8.01849 47.5009 8.71212H46.1735C46.0858 8.36132 45.9104 8.08228 45.6473 7.87499C45.3842 7.6677 45.0613 7.56405 44.6786 7.56405C44.1604 7.56405 43.7418 7.75141 43.4229 8.12613C43.112 8.50084 42.9565 8.98717 42.9565 9.58512C42.9565 10.191 43.112 10.6854 43.4229 11.068C43.7418 11.4428 44.1604 11.6301 44.6786 11.6301C45.0772 11.6301 45.4081 11.5265 45.6712 11.3192C45.9343 11.1039 46.1057 10.8169 46.1854 10.4581H47.5009Z" fill="white"/>
<path d="M6.14266 4.33856C6.60313 4.07271 7.17871 4.40502 7.17871 4.93673L7.17871 11.0535C7.17871 11.5852 6.60313 11.9175 6.14266 11.6517L0.84535 8.59329C0.384883 8.32744 0.384883 7.66282 0.845351 7.39697L6.14266 4.33856Z" fill="url(#paint0_linear_8010_6916)"/>
<path d="M6.14266 4.33856C6.60313 4.07271 7.17871 4.40502 7.17871 4.93673L7.17871 11.0535C7.17871 11.5852 6.60313 11.9175 6.14266 11.6517L0.84535 8.59329C0.384883 8.32744 0.384883 7.66282 0.845351 7.39697L6.14266 4.33856Z" fill="url(#paint1_linear_8010_6916)"/>
<path d="M13.5121 8.59319C13.9726 8.32734 14.5482 8.65965 14.5482 9.19135V15.3082C14.5482 15.8399 13.9726 16.1722 13.5121 15.9063L8.21481 12.8479C7.75434 12.5821 7.75434 11.9174 8.21481 11.6516L13.5121 8.59319Z" fill="url(#paint2_linear_8010_6916)"/>
<path d="M13.5121 8.59319C13.9726 8.32734 14.5482 8.65965 14.5482 9.19135V15.3082C14.5482 15.8399 13.9726 16.1722 13.5121 15.9063L8.21481 12.8479C7.75434 12.5821 7.75434 11.9174 8.21481 11.6516L13.5121 8.59319Z" fill="url(#paint3_linear_8010_6916)"/>
<path d="M13.5121 0.0838012C13.9726 -0.18205 14.5482 0.150264 14.5482 0.681966V6.79877C14.5482 7.33048 13.9726 7.66279 13.5121 7.39694L8.21481 4.33853C7.75434 4.07268 7.75434 3.40806 8.21481 3.14221L13.5121 0.0838012Z" fill="url(#paint4_linear_8010_6916)"/>
<path d="M13.5121 0.0838012C13.9726 -0.18205 14.5482 0.150264 14.5482 0.681966V6.79877C14.5482 7.33048 13.9726 7.66279 13.5121 7.39694L8.21481 4.33853C7.75434 4.07268 7.75434 3.40806 8.21481 3.14221L13.5121 0.0838012Z" fill="url(#paint5_linear_8010_6916)"/>
<defs>
<linearGradient id="paint0_linear_8010_6916" x1="17.2339" y1="7.99506" x2="-0.242852" y2="11.9124" gradientUnits="userSpaceOnUse">
<stop offset="1" stop-color="white"/>
<stop stop-color="white"/>
</linearGradient>
<linearGradient id="paint1_linear_8010_6916" x1="17.2339" y1="7.99506" x2="-0.242852" y2="11.9124" gradientUnits="userSpaceOnUse">
<stop offset="1" stop-color="#433CAC"/>
<stop stop-color="#675EF6"/>
</linearGradient>
<linearGradient id="paint2_linear_8010_6916" x1="17.2339" y1="7.99506" x2="-0.242852" y2="11.9124" gradientUnits="userSpaceOnUse">
<stop offset="1" stop-color="white"/>
<stop stop-color="white"/>
</linearGradient>
<linearGradient id="paint3_linear_8010_6916" x1="17.2339" y1="7.99506" x2="-0.242852" y2="11.9124" gradientUnits="userSpaceOnUse">
<stop offset="1" stop-color="#433CAC"/>
<stop stop-color="#675EF6"/>
</linearGradient>
<linearGradient id="paint4_linear_8010_6916" x1="17.2339" y1="7.99506" x2="-0.242852" y2="11.9124" gradientUnits="userSpaceOnUse">
<stop offset="1" stop-color="white"/>
<stop stop-color="white"/>
</linearGradient>
<linearGradient id="paint5_linear_8010_6916" x1="17.2339" y1="7.99506" x2="-0.242852" y2="11.9124" gradientUnits="userSpaceOnUse">
<stop offset="1" stop-color="#433CAC"/>
<stop stop-color="#675EF6"/>
</linearGradient>
</defs>
</svg>
