<svg width="18" height="18" viewBox="0 0 18 18" fill="none" xmlns="http://www.w3.org/2000/svg">
<path d="M14 4.82386C14 4.53111 14 4.38474 13.9869 4.25748C13.8785 3.20101 13.1145 2.32833 12.0816 2.08125C11.9572 2.05149 11.8121 2.03214 11.5219 1.99345L6.02866 1.26102C4.46496 1.05252 3.68311 0.948279 3.0763 1.18956C2.54353 1.4014 2.09976 1.78992 1.81937 2.29002C1.5 2.85963 1.5 3.6484 1.5 5.22593L1.5 12.7551C1.5 14.3327 1.5 15.1214 1.81937 15.691C2.09976 16.1911 2.54353 16.5797 3.07629 16.7915C3.68311 17.0328 4.46496 16.9285 6.02865 16.72L11.5219 15.9876C11.8121 15.9489 11.9572 15.9296 12.0816 15.8998C13.1145 15.6527 13.8785 14.7801 13.9869 13.7236C14 13.5963 14 13.45 14 13.1572M9 12.3239L5.66667 8.99053M5.66667 8.99053L9 5.6572M5.66667 8.99053L16.5 8.99053" stroke="white" stroke-width="1.5" stroke-linecap="round" stroke-linejoin="round"/>
</svg>
