<svg width="16" height="18" viewBox="0 0 16 18" fill="none" xmlns="http://www.w3.org/2000/svg">
<path d="M14.9833 8.32187C14.795 8.15839 14.6257 7.97422 14.4786 7.77283C14.0045 7.11387 13.742 6.32633 13.7259 5.51471V1.52978C13.7259 1.2362 13.6093 0.954651 13.4017 0.747062C13.1941 0.539474 12.9125 0.422852 12.6189 0.422852H10.8479C10.5543 0.422852 10.2727 0.539474 10.0652 0.747062C9.85756 0.954651 9.74094 1.2362 9.74094 1.52978V2.70754C9.75449 3.20561 9.59114 3.69237 9.27988 4.08144C8.96863 4.47051 8.5296 4.73672 8.04071 4.83284C7.84679 4.85942 7.65016 4.85942 7.45625 4.83284C6.96736 4.73672 6.52833 4.47051 6.21707 4.08144C5.90582 3.69237 5.74247 3.20561 5.75601 2.70754V1.52978C5.75601 1.2362 5.63939 0.954651 5.4318 0.747062C5.22421 0.539474 4.94266 0.422852 4.64909 0.422852H2.87801C2.58443 0.422852 2.30288 0.539474 2.09529 0.747062C1.8877 0.954651 1.77108 1.2362 1.77108 1.52978V5.51471C1.758 6.3323 1.49537 7.12638 1.01837 7.79054C0.871271 7.99193 0.701951 8.1761 0.513616 8.33958C0.351686 8.48441 0.222214 8.66185 0.133697 8.86025C0.0451796 9.05865 -0.000381916 9.27353 2.41133e-06 9.49078V16.1412C0.00232704 16.5515 0.166344 16.9443 0.456466 17.2344C0.746588 17.5245 1.13941 17.6886 1.5497 17.6909H13.9473C14.3575 17.6886 14.7504 17.5245 15.0405 17.2344C15.3306 16.9443 15.4946 16.5515 15.497 16.1412V9.47307C15.4973 9.25582 15.4518 9.04094 15.3633 8.84254C15.2747 8.64414 15.1453 8.4667 14.9833 8.32187ZM1.3903 9.31367C1.64525 9.08987 1.87669 8.84063 2.08102 8.56982C2.72835 7.68132 3.08416 6.61391 3.09939 5.51471V1.75116H4.4277V2.70754C4.40655 3.52839 4.68389 4.32903 5.20828 4.9609C5.73266 5.59276 6.46846 6.01293 7.27914 6.14344C7.59046 6.18777 7.90649 6.18777 8.21781 6.14344C9.02849 6.01293 9.7643 5.59276 10.2887 4.9609C10.8131 4.32903 11.0904 3.52839 11.0693 2.70754V1.75116H12.3976V5.51471C12.4164 6.60783 12.7721 7.66853 13.4159 8.55211C13.6197 8.82066 13.8479 9.06968 14.0978 9.29596C14.1198 9.31635 14.1374 9.34099 14.1496 9.36839C14.1618 9.39579 14.1682 9.42538 14.1686 9.45536V13.6882H1.32831V9.47307C1.33016 9.41442 1.35203 9.35816 1.3903 9.31367ZM13.9473 16.398H1.5497C1.51739 16.3984 1.48538 16.3917 1.45592 16.3785C1.42646 16.3652 1.40026 16.3457 1.37916 16.3212C1.35807 16.2967 1.34258 16.2679 1.3338 16.2368C1.32501 16.2057 1.32314 16.1731 1.32831 16.1412V15.0343H14.1686V16.1412C14.1686 16.1999 14.1453 16.2562 14.1038 16.2977C14.0623 16.3392 14.006 16.3626 13.9473 16.3626V16.398Z" fill="#15171C"/>
<path d="M7.74891 10.6052H7.9703V11.7122C7.9703 11.8883 8.04027 12.0572 8.16483 12.1818C8.28938 12.3064 8.45831 12.3763 8.63445 12.3763C8.8106 12.3763 8.97953 12.3064 9.10408 12.1818C9.22864 12.0572 9.29861 11.8883 9.29861 11.7122V8.17001C9.29861 7.99387 9.22864 7.82494 9.10408 7.70039C8.97953 7.57583 8.8106 7.50586 8.63445 7.50586C8.45831 7.50586 8.28938 7.57583 8.16483 7.70039C8.04027 7.82494 7.9703 7.99387 7.9703 8.17001V9.27694H7.74891C7.6902 9.27694 7.63389 9.25361 7.59237 9.2121C7.55085 9.17058 7.52753 9.11427 7.52753 9.05555V8.17001C7.52753 7.99387 7.45756 7.82494 7.333 7.70039C7.20845 7.57583 7.03952 7.50586 6.86337 7.50586C6.68723 7.50586 6.5183 7.57583 6.39375 7.70039C6.26919 7.82494 6.19922 7.99387 6.19922 8.17001V9.05555C6.20154 9.46584 6.36556 9.85866 6.65568 10.1488C6.9458 10.4389 7.33863 10.6029 7.74891 10.6052Z" fill="#15171C"/>
</svg>
